<svg xmlns="http://www.w3.org/2000/svg" width="64" height="64" id="book"><path d="M16 0C7.17 0 0 7.17 0 16s7.17 16 16 16 16-7.17 16-16S24.83 0 16 0zm0 1c8.29 0 15 6.71 15 15s-6.71 15-15 15S1 24.29 1 16 7.71 1 16 1zm-5.531 6.469v.062c-.559.086-1.034.295-1.375.657-.44.465-.625 1.104-.625 1.78v13.063a.502.502 0 0 0 .031.219 1.488 1.488 0 0 0 1.469 1.281H22.53v-2h1V7.47h-2v7.75l-.906-.875-.625-.625-.656.625-.844.875v-7.75h-7.469a.502.502 0 0 0-.031 0h-.531zm9.031 0v5.312l.125-.125.375-.375.344.375.156.156V7.47h-1zM10.469 8.53v13h-.5c-.173 0-.346.04-.5.094V9.969c0-.475.139-.844.375-1.094a1.22 1.22 0 0 1 .625-.344zM14.813 19.5a.508.508 0 0 1 .03 0 .504.504 0 0 1 .063 0 .502.502 0 0 1 .094 0h5a.502.502 0 1 1 0 1h-5a.51.51 0 1 1-.188-1zm-4.844 3.031H11a.502.502 0 0 0 .063 0H21.53v1H9.97c-.215 0-.5-.14-.5-.5 0-.23.268-.5.5-.5z" color="#000" font-family="Sans" font-weight="400" overflow="visible" style="text-indent:0;text-align:start;line-height:normal;text-transform:none;block-progression:tb;marker:none;-inkscape-font-specification:Sans"></path></svg>