<svg xmlns="http://www.w3.org/2000/svg" data-name="Layer 1" viewBox="0 0 64 64" id="record"><polygon fill="#054f70" points="34.92 47.26 37.74 56.02 26.41 55.86 28.5 47.58 34.92 47.26"></polygon><rect width="47.86" height="32.92" x="8.15" y="8.15" fill="#e8f3fc" rx="2.96"></rect><rect width="47.86" height="6.11" x="8.15" y="41.07" fill="#1279b2" rx="2.96"></rect><path fill="#1b6abf" d="M53.06 48.27H10.94A3.94 3.94 0 0 1 7 44.33V41.45a1 1 0 0 1 1-1H56a1 1 0 0 1 1 1v2.88A3.94 3.94 0 0 1 53.06 48.27zM9 42.45v1.88a1.94 1.94 0 0 0 1.94 1.94H53.06A1.94 1.94 0 0 0 55 44.33V42.45zM56 31.25a1 1 0 0 1-1-1V10.94A1.94 1.94 0 0 0 53.06 9H10.94A1.94 1.94 0 0 0 9 10.94V14a1 1 0 0 1-2 0V10.94A4 4 0 0 1 10.94 7H53.06A4 4 0 0 1 57 10.94V30.25A1 1 0 0 1 56 31.25z"></path><path fill="#1b6abf" d="M56 42.45H8a1 1 0 0 1-1-1V21.79a1 1 0 0 1 2 0V40.45H55V37.36a1 1 0 0 1 2 0v4.09A1 1 0 0 1 56 42.45zM37.82 57H26.18a1 1 0 0 1-.8-.4 1 1 0 0 1-.16-.87L27.71 47a1 1 0 0 1 1-.73h6.66a1 1 0 0 1 1 .73l.84 2.92a1 1 0 1 1-1.93.55l-.62-2.2H29.42L27.51 55h9l-.36-1.29a1 1 0 0 1 .68-1.24 1 1 0 0 1 1.24.69l.73 2.57a1 1 0 0 1-.16.87A1 1 0 0 1 37.82 57z"></path><path fill="#c1ddf7" d="M12.5 45.5h-1a1 1 0 0 1 0-2h1a1 1 0 0 1 0 2zM28.5 45.5h-13a1 1 0 0 1 0-2h13a1 1 0 0 1 0 2zM52.5 45.5l-.2 0a.64.64 0 0 1-.18-.06l-.18-.09-.15-.12a1 1 0 0 1-.21-.33 1 1 0 0 1-.08-.38 1.5 1.5 0 0 1 0-.2.64.64 0 0 1 .06-.18.76.76 0 0 1 .09-.18l.12-.15.15-.12.18-.09a.64.64 0 0 1 .18-.06 1 1 0 0 1 .58.06 1 1 0 0 1 .33.21 1.58 1.58 0 0 1 .12.15.76.76 0 0 1 .09.18.64.64 0 0 1 .06.18 1.5 1.5 0 0 1 0 .2 1 1 0 0 1-1 1zM49.5 45.5a1 1 0 0 1-.71-1.71 1 1 0 0 1 .33-.21 1 1 0 0 1 1.09.21 1.05 1.05 0 0 1 .29.71 1 1 0 0 1-.08.38 1 1 0 0 1-.21.33A1.05 1.05 0 0 1 49.5 45.5zM32 12.5a1 1 0 0 1-.38-.08.9.9 0 0 1-.54-.54A1 1 0 0 1 31 11.5a1.05 1.05 0 0 1 .29-.71 1.15 1.15 0 0 1 .33-.21 1 1 0 0 1 .58-.06l.18.06.18.09.15.12.12.15a.76.76 0 0 1 .09.18.64.64 0 0 1 .06.18 1.36 1.36 0 0 1 0 .2.84.84 0 0 1-.08.38 1.15 1.15 0 0 1-.21.33l-.15.12-.18.09-.18.06zM47.32 16.34a1 1 0 0 1-.71-.29 1 1 0 0 1 0-1.42L49.29 12a1 1 0 0 1 1.42 1.42L48 16.05A1 1 0 0 1 47.32 16.34z"></path><path fill="#c1ddf7" d="M50 16.34a1 1 0 0 1-.71-.29l-2.68-2.68A1 1 0 0 1 48 12l2.68 2.68a1 1 0 0 1 0 1.42A1 1 0 0 1 50 16.34zM20.71 37.17H12.82a1 1 0 0 1 0-2h7.89a1 1 0 0 1 0 2zM17.71 31.92H12.82a1 1 0 0 1 0-2h4.89a1 1 0 0 1 0 2z"></path><path fill="#0d4c84" d="M36.21,31.78H25.62a1,1,0,0,1-1-1V20.19a1,1,0,0,1,1-1H36.21a1,1,0,0,1,1,1v1.34l3.47-2a1,1,0,0,1,1,0,1,1,0,0,1,.5.86V30.58a1,1,0,0,1-.5.87,1,1,0,0,1-1,0l-3.47-2v1.34A1,1,0,0,1,36.21,31.78Zm-9.59-2h8.59V27.71a1,1,0,0,1,.5-.86,1,1,0,0,1,1,0l3.47,2V22.12l-3.47,2a1,1,0,0,1-1,0,1,1,0,0,1-.5-.87V21.19H26.62Z"></path></svg>